<?xml version="1.0" encoding="UTF-8" standalone="no"?>
<svg
   xmlns:dc="http://purl.org/dc/elements/1.1/"
   xmlns:cc="http://creativecommons.org/ns#"
   xmlns:rdf="http://www.w3.org/1999/02/22-rdf-syntax-ns#"
   xmlns:svg="http://www.w3.org/2000/svg"
   xmlns="http://www.w3.org/2000/svg"
   xmlns:sodipodi="http://sodipodi.sourceforge.net/DTD/sodipodi-0.dtd"
   xmlns:inkscape="http://www.inkscape.org/namespaces/inkscape"
   version="1.1"
   id="Layer_1"
   x="0px"
   y="0px"
   viewBox="0 0 496.159 496.159"
   style="enable-background:new 0 0 496.159 496.159;"
   xml:space="preserve"
   sodipodi:docname="muted.svg"
   inkscape:version="1.0.1 (3bc2e813f5, 2020-09-07)"><metadata
   id="metadata45"><rdf:RDF><cc:Work
       rdf:about=""><dc:format>image/svg+xml</dc:format><dc:type
         rdf:resource="http://purl.org/dc/dcmitype/StillImage" /></cc:Work></rdf:RDF></metadata><defs
   id="defs43" /><sodipodi:namedview
   pagecolor="#ffffff"
   bordercolor="#666666"
   borderopacity="1"
   objecttolerance="10"
   gridtolerance="10"
   guidetolerance="10"
   inkscape:pageopacity="0"
   inkscape:pageshadow="2"
   inkscape:window-width="1920"
   inkscape:window-height="1052"
   id="namedview41"
   showgrid="false"
   inkscape:zoom="1.3040175"
   inkscape:cx="248.0795"
   inkscape:cy="248.0795"
   inkscape:window-x="1920"
   inkscape:window-y="0"
   inkscape:window-maximized="1"
   inkscape:current-layer="Layer_1" />
<path
   style="fill:none"
   d="M496.159,248.086c0-137.022-111.07-248.082-248.076-248.082C111.071,0.004,0,111.063,0,248.086  c0,137.001,111.07,248.07,248.083,248.07C385.089,496.155,496.159,385.086,496.159,248.086z"
   id="path2" />
<g
   id="g8">
	<path
   style="fill:#FFFFFF;"
   d="M259.432,128.917c-3.409-1.851-7.559-1.688-10.813,0.425l-95.137,61.791h-35.164   c-5.845,0-10.583,4.738-10.583,10.582v92.728c0,5.845,4.738,10.583,10.583,10.583h35.164l95.137,61.79   c1.748,1.135,3.754,1.708,5.765,1.708c1.733,0,3.471-0.426,5.049-1.283c3.41-1.852,5.534-5.42,5.534-9.301V138.219   C264.966,134.339,262.842,130.768,259.432,128.917z"
   id="path4" />
	<path
   style="fill:#FFFFFF;"
   d="M355.405,248.079l30.384-30.384c3.515-3.516,3.515-9.213,0-12.729   c-3.515-3.514-9.213-3.514-12.728,0l-30.384,30.385l-30.384-30.385c-3.515-3.514-9.213-3.514-12.728,0   c-3.515,3.516-3.515,9.213,0,12.729l30.385,30.384l-30.384,30.384c-3.515,3.516-3.515,9.213,0,12.729   c1.757,1.757,4.061,2.636,6.364,2.636c2.303,0,4.606-0.879,6.364-2.636l30.384-30.385l30.384,30.385   c1.757,1.757,4.061,2.636,6.364,2.636c2.303,0,4.606-0.879,6.364-2.636c3.515-3.516,3.515-9.213,0-12.729L355.405,248.079z"
   id="path6" />
</g>
<g
   id="g10">
</g>
<g
   id="g12">
</g>
<g
   id="g14">
</g>
<g
   id="g16">
</g>
<g
   id="g18">
</g>
<g
   id="g20">
</g>
<g
   id="g22">
</g>
<g
   id="g24">
</g>
<g
   id="g26">
</g>
<g
   id="g28">
</g>
<g
   id="g30">
</g>
<g
   id="g32">
</g>
<g
   id="g34">
</g>
<g
   id="g36">
</g>
<g
   id="g38">
</g>
</svg>
