<?xml version="1.0" encoding="UTF-8" standalone="no"?>
<svg
   xmlns:dc="http://purl.org/dc/elements/1.1/"
   xmlns:cc="http://creativecommons.org/ns#"
   xmlns:rdf="http://www.w3.org/1999/02/22-rdf-syntax-ns#"
   xmlns:svg="http://www.w3.org/2000/svg"
   xmlns="http://www.w3.org/2000/svg"
   xmlns:sodipodi="http://sodipodi.sourceforge.net/DTD/sodipodi-0.dtd"
   xmlns:inkscape="http://www.inkscape.org/namespaces/inkscape"
   version="1.1"
   id="Layer_1"
   x="0px"
   y="0px"
   viewBox="0 0 233.28999 320.00101"
   enable-background="new 0 0 2560 1600"
   xml:space="preserve"
   sodipodi:docname="base_clef.svg"
   width="233.28999"
   height="320.00101"
   inkscape:version="1.0.1 (3bc2e813f5, 2020-09-07)"><metadata
   id="metadata29"><rdf:RDF><cc:Work
       rdf:about=""><dc:format>image/svg+xml</dc:format><dc:type
         rdf:resource="http://purl.org/dc/dcmitype/StillImage" /></cc:Work></rdf:RDF></metadata><defs
   id="defs27" /><sodipodi:namedview
   pagecolor="#ffffff"
   bordercolor="#666666"
   borderopacity="1"
   objecttolerance="10"
   gridtolerance="10"
   guidetolerance="10"
   inkscape:pageopacity="0"
   inkscape:pageshadow="2"
   inkscape:window-width="1920"
   inkscape:window-height="1024"
   id="namedview25"
   showgrid="false"
   inkscape:zoom="0.404375"
   inkscape:cx="-336.526"
   inkscape:cy="-165.442"
   inkscape:window-x="0"
   inkscape:window-y="28"
   inkscape:window-maximized="1"
   inkscape:current-layer="Layer_1" />







<path
   id="path9104_1_"
   d="m 131.783,194.65 -54.185,-4.705 11.237,-61.83 54.159,4.705 z m 94.015,-54.636 7.492,-41.2 L 176.022,93.835 191.101,10.863 166.005,6.301 150.485,91.619 96.376,86.914 111.334,4.562 86.223,0 70.822,84.663 26.217,80.852 18.726,122.004 63.355,125.923 52.118,187.729 7.462,183.87 0,225.046 l 44.628,3.919 -14.586,80.173 25.083,4.562 15.004,-82.507 54.163,4.705 -14.465,79.589 25.087,4.514 14.892,-81.936 57.256,5.002 7.492,-41.224 -57.256,-4.955 11.232,-61.818 57.268,4.944" />







</svg>
