<?xml version="1.0" encoding="UTF-8" standalone="no"?>
<svg
   xmlns:dc="http://purl.org/dc/elements/1.1/"
   xmlns:cc="http://creativecommons.org/ns#"
   xmlns:rdf="http://www.w3.org/1999/02/22-rdf-syntax-ns#"
   xmlns:svg="http://www.w3.org/2000/svg"
   xmlns="http://www.w3.org/2000/svg"
   xmlns:sodipodi="http://sodipodi.sourceforge.net/DTD/sodipodi-0.dtd"
   xmlns:inkscape="http://www.inkscape.org/namespaces/inkscape"
   version="1.1"
   id="Layer_1"
   x="0px"
   y="0px"
   viewBox="0 0 107.79112 319.99915"
   enable-background="new 0 0 2560 1600"
   xml:space="preserve"
   sodipodi:docname="treble_clef.svg"
   width="107.79112"
   height="319.99915"
   inkscape:version="1.0.1 (3bc2e813f5, 2020-09-07)"><metadata
   id="metadata29"><rdf:RDF><cc:Work
       rdf:about=""><dc:format>image/svg+xml</dc:format><dc:type
         rdf:resource="http://purl.org/dc/dcmitype/StillImage" /></cc:Work></rdf:RDF></metadata><defs
   id="defs27" /><sodipodi:namedview
   pagecolor="#ffffff"
   bordercolor="#666666"
   borderopacity="1"
   objecttolerance="10"
   gridtolerance="10"
   guidetolerance="10"
   inkscape:pageopacity="0"
   inkscape:pageshadow="2"
   inkscape:window-width="1920"
   inkscape:window-height="1024"
   id="namedview25"
   showgrid="false"
   inkscape:zoom="0.404375"
   inkscape:cx="1121.2453"
   inkscape:cy="-165.44245"
   inkscape:window-x="0"
   inkscape:window-y="28"
   inkscape:window-maximized="1"
   inkscape:current-layer="Layer_1" />












<path
   d="m 71.556267,155.69455 c -3.17,0.033 -6.245,0.47 -9.186,1.243 -2.333,-11.672 -4.561,-22.985 -6.53,-33.398 15.552,-15.866 29.128,-36.356995 28.824,-74.212995 0.048,-27.175 -8.674,-49.00800032 -17.956,-49.32400032 -11.717,-0.316 -25.395,28.74200032 -24.937,54.66800032 0.105,7.915 2.464,23.941 5.977,44.117 -22.069,23.723995 -47.74299985,48.029995 -47.74299985,79.973995 -0.352,29.293 16.91899985,66.645 57.80599985,66.277 6.288,-0.034 11.923,-0.819 16.947,-2.208 3.736,21.287 6.23,38.09 6.217,45.842 0.134,31.333 -40.45,33.747 -40.498,14.746 0,0 -0.023,-0.099 0.139,-0.597 0.505,0.051 1.017,0.078 1.535,0.078 8.407,0 15.231,-6.901 15.231,-15.401 0,-8.502 -6.824,-15.403 -15.231,-15.403 -4.738,0 -8.944,2.197 -12.26,5.131 -3.382,2.993 -6.173,8.228 -6.27,18.344 0,25.631 62.386,42.109 62.386,-8.422 0.098,-6.806 -2.709,-23.933 -6.828,-45.761 44.498003,-16.723 33.318003,-85.371 -7.623,-85.693 z m 7.402,-113.511995 c 0.43,19.362 -12.553,36.24 -28.108,53.246 -1.511,-9.436 -2.45,-16.874 -2.556,-21.39 0.704,-48.334 30.664,-61.882 30.664,-31.856 z m -67.672,149.395995 c 0,-32.505 21.704,-45.754 41.506,-65.004 1.895,10.135 3.923,20.747 5.99,31.498 -27.07,10.04 -40.07,49.277 -1.676,66.828 -23.421,-20.716 -11.882,-45.266 5.009,-49.529 4.242,22.007 8.436,43.837 11.789,62.624 -4.552,1.646 -9.889,2.608 -16.092,2.651 -15.51,0 -46.526,-10.252 -46.526,-49.068 z m 66.895,44.564 c -3.563,-18.604 -7.936,-40.11 -12.227,-61.376 0.689,-0.044 1.381,-0.057 2.078,-0.031 28.217,0 38.909003,46.544 10.149,61.407 z"
   id="path18" />


</svg>
